<?xml version="1.0" encoding="UTF-8"?>
<svg version="1.1" xmlns="http://www.w3.org/2000/svg" width="1554" height="708">
<path d="M0 0 C512.82 0 1025.64 0 1554 0 C1554 233.64 1554 467.28 1554 708 C1041.18 708 528.36 708 0 708 C0 474.36 0 240.72 0 0 Z " fill="#0A083A" transform="translate(0,0)"/>
<path d="M0 0 C329.34 0 658.68 0 998 0 C998 0.33 998 0.66 998 1 C996.92576782 1.08918701 996.92576782 1.08918701 995.82983398 1.18017578 C961.76870028 4.10871598 927.91280185 10.36602776 896 23 C894.61941406 23.54333984 894.61941406 23.54333984 893.2109375 24.09765625 C890.11958274 25.35378525 887.05909409 26.66708414 884 28 C882.92903076 28.4638208 882.92903076 28.4638208 881.83642578 28.93701172 C847.26764235 43.96846991 814.36639751 63.71300554 786.6953125 89.515625 C784.5728146 91.47201437 782.42398495 93.3662845 780.23828125 95.25 C769.81641073 104.34037744 759.68567045 114.28104572 751.1796875 125.203125 C749.51386363 127.34063376 747.8197768 129.41713038 746.0703125 131.484375 C739.87198231 138.85232614 734.16242428 146.42917795 728.8125 154.4375 C728.01259644 155.63221924 728.01259644 155.63221924 727.1965332 156.85107422 C726.39735474 158.06754639 726.39735474 158.06754639 725.58203125 159.30859375 C725.03880219 160.11813507 724.49557312 160.92767639 723.93588257 161.76174927 C722.43569086 164.2711974 721.30988603 166.53817277 720.18916321 169.20849609 C715.10237063 180.55632269 715.10237063 180.55632269 709.91624641 182.96966743 C703.81203092 184.47983022 697.57036894 184.09887432 691.3359375 183.87890625 C689.33242826 183.86962418 687.32887134 183.8678656 685.3253479 183.87327576 C680.07826034 183.86740832 674.83807896 183.76009154 669.59277344 183.63085938 C664.23023653 183.51693598 658.86746378 183.4999742 653.50390625 183.47460938 C643.00014257 183.41076384 632.50112222 183.23962517 622 183 C621.70401665 183.80443542 621.70401665 183.80443542 621.40205383 184.62512207 C620.49353335 187.09391869 619.58465942 189.56258504 618.67578125 192.03125 C618.36547974 192.87461914 618.05517822 193.71798828 617.73547363 194.58691406 C615.90266106 199.56426982 614.05528608 204.53566097 612.1875 209.5 C608.98868724 218.00662505 605.83711347 226.53061319 602.68579102 235.05493164 C600.35435929 241.3577117 598.00414796 247.65260372 595.625 253.9375 C593.96225765 258.34819188 592.39347434 262.7669802 590.9375 267.25 C589.34074323 272.13843159 587.4291477 276.8221304 585.4140625 281.55078125 C582.69795889 288.1759732 580.31308217 294.92837726 577.85986328 301.65429688 C576.59298492 305.1103353 575.2977911 308.55547695 574 312 C567.6808518 328.62781376 567.6808518 328.62781376 561.875 345.4375 C560.65119092 349.19661667 559.27130744 352.82358681 557.71484375 356.45703125 C554.8316411 363.31387858 552.24646856 370.26685912 549.6875 377.25 C549.23310547 378.48363281 548.77871094 379.71726562 548.31054688 380.98828125 C547.20476157 383.99136135 546.1012863 386.99526777 545 390 C544.34 390 543.68 390 543 390 C532.44213867 361.84570312 532.44213867 361.84570312 531.72483826 359.93252563 C531.22798368 358.60783809 530.73078394 357.28327996 530.23329163 355.95883179 C528.69620248 351.86519073 527.17154673 347.76728298 525.66015625 343.6640625 C525.23669922 342.51679688 524.81324219 341.36953125 524.37695312 340.1875 C523.50365621 337.82064478 522.63125403 335.45345922 521.75976562 333.0859375 C519.89592335 328.04027041 518.02314692 323.00605839 515.99609375 318.0234375 C514.51759735 314.36518158 513.15544186 310.68090457 511.83984375 306.9609375 C507.88863039 295.79728768 503.70374762 284.7191886 499.5625 273.625 C498.72061835 271.36721911 497.87882093 269.10940681 497.03710938 266.8515625 C492.23727413 253.97921553 487.43665785 241.10706613 482.58691406 228.25341797 C479.33073288 219.62141889 476.13154824 210.96835908 472.94589233 202.31011963 C472.4425398 200.94279773 471.93849723 199.57572965 471.43374634 198.20892334 C470.71809395 196.27024139 470.00519221 194.33056886 469.29296875 192.390625 C468.66684692 190.6895459 468.66684692 190.6895459 468.02807617 188.95410156 C467 186 467 186 466 182 C369.64 182 273.28 182 174 182 C174 205.1 174 228.2 174 252 C207.99 252 241.98 252 277 252 C277 331.2 277 410.4 277 492 C304.39 492 331.78 492 360 492 C360 412.8 360 333.6 360 252 C374.85 252 389.7 252 405 252 C415.62371381 277.40911385 425.80237597 302.98762278 435.96784592 328.58283234 C439.78593774 338.19394854 443.60924201 347.80299379 447.43164635 357.41239548 C448.86838253 361.02443384 450.30489701 364.63656033 451.7414093 368.24868774 C460.28058583 389.71794482 468.85108129 411.17459927 477.4375 432.625 C478.06915511 434.20314443 478.70080797 435.78128977 479.3324585 437.35943604 C482.4804741 445.22425299 485.62951256 453.08865944 488.77981567 460.95256042 C490.23854825 464.59577997 491.69478545 468.23999369 493.14997864 471.8846283 C493.99116745 473.97801924 494.84469055 476.06597314 495.703125 478.15234375 C496.08984375 479.09883789 496.08984375 479.09883789 496.484375 480.06445312 C497.00660779 481.34205834 497.53282241 482.61804142 498.0625 483.89257812 C499.22908611 486.76440362 500 488.86754883 500 492 C529.04 492 558.08 492 588 492 C588.66 489.03 589.32 486.06 590 483 C590.49665442 481.46578687 591.03233132 479.94250417 591.63743591 478.44773865 C591.95133711 477.66241792 592.2652383 476.87709719 592.58865166 476.06797886 C592.92863245 475.23786761 593.26861324 474.40775637 593.61889648 473.55249023 C593.98305727 472.64717277 594.34721806 471.7418553 594.72241402 470.80910397 C595.93212933 467.80625977 597.15164858 464.80749835 598.37109375 461.80859375 C599.23804378 459.66145118 600.10431497 457.51403439 600.96995544 455.36636353 C602.82058229 450.77833007 604.67531796 446.19198893 606.53338623 441.60696411 C610.93620824 430.74173431 615.31846236 419.86820384 619.70283508 408.99551964 C620.94814342 405.9078446 622.19397042 402.82037997 623.44007277 399.73302537 C634.46719895 372.41018374 645.35070149 345.03079459 656.21505451 317.64292145 C657.6073461 314.13352121 659.00025417 310.62436578 660.39317513 307.1152153 C661.32818601 304.75846193 662.26189319 302.40119556 663.19541931 300.04385376 C666.03981542 292.86943546 668.91972838 285.71463671 671.91360474 278.60081482 C673.65963867 274.4208344 675.33210915 270.21165735 677 266 C678.17475556 269.52426668 677.75367554 270.89338869 676.890625 274.4609375 C676.50233521 276.11295166 676.50233521 276.11295166 676.10620117 277.79833984 C675.68238159 279.56878662 675.68238159 279.56878662 675.25 281.375 C673.25718023 290.00729516 671.41386283 298.59812176 670.1875 307.375 C670.07631836 308.16181152 669.96513672 308.94862305 669.85058594 309.75927734 C663.54683143 357.43767456 667.62596283 408.96572853 682.30908203 454.79882812 C683.01839486 457.05860356 683.67076651 459.32845458 684.30859375 461.609375 C686.66146908 470.00912175 689.41416422 478.0366504 693 486 C693.67891617 487.54013073 694.35725279 489.080517 695.03515625 490.62109375 C699.72956979 501.23067334 704.60530461 511.72701106 710 522 C710.3290332 522.6276123 710.65806641 523.25522461 710.99707031 523.90185547 C723.70177541 547.86894407 739.9332605 569.83367424 758 590 C758.70141113 590.78818115 758.70141113 590.78818115 759.41699219 591.59228516 C769.41419912 602.80225621 779.76672559 613.74328325 791.5703125 623.06640625 C793.70953655 624.76884339 795.73110911 626.53373685 797.75 628.375 C826.17078464 653.43854328 863.91017139 674.96005241 900.06640625 686.015625 C902.64964994 686.88243913 905.12311029 687.86059983 907.640625 688.8984375 C936.44646347 700.5136519 968.23824224 704.54968406 999 707 C999 707.33 999 707.66 999 708 C669.33 708 339.66 708 0 708 C0 474.36 0 240.72 0 0 Z " fill="#FEFEFE" transform="translate(0,0)"/>
<path d="M0 0 C167.64 0 335.28 0 508 0 C508 233.64 508 467.28 508 708 C337.72 708 167.44 708 -8 708 C-8 707.67 -8 707.34 -8 707 C-7.0934668 706.91959473 -6.18693359 706.83918945 -5.25292969 706.75634766 C-1.83070746 706.45058959 1.59108991 706.14068272 5.01269531 705.828125 C6.48260149 705.69467215 7.95265108 705.56278775 9.42285156 705.43261719 C18.35227544 704.6407856 27.18263521 703.66011816 36 702 C37.08007324 701.79922852 38.16014648 701.59845703 39.27294922 701.39160156 C102.19468056 689.42099492 161.14341465 661.85843041 209 619 C210.45019531 617.71609375 210.45019531 617.71609375 211.9296875 616.40625 C224.47571174 605.11822819 236.64451748 593.34915838 247 580 C247.90065399 578.89728918 248.80450814 577.79718714 249.7109375 576.69921875 C286.17348293 532.34253224 311.13151102 478.55620978 322 422.1875 C322.21228745 421.10119797 322.21228745 421.10119797 322.42886353 419.99295044 C323.39087603 415.01034806 324.2390597 410.01715412 325 405 C325.15680237 403.987099 325.15680237 403.987099 325.31677246 402.95373535 C327.5933181 387.55109479 327.30753667 371.97799939 327.26074219 356.44775391 C327.2493278 352.63453392 327.25613408 348.82159241 327.26761818 345.00838184 C327.3944734 322.923596 327.3944734 322.923596 325 301 C324.84337891 300.02675781 324.68675781 299.05351562 324.52539062 298.05078125 C324.09855369 295.5447172 323.6260288 293.05467321 323.125 290.5625 C322.95210449 289.684729 322.77920898 288.80695801 322.60107422 287.90258789 C322.07664543 285.26641797 321.5401022 282.63299824 321 280 C320.84273437 279.21979492 320.68546875 278.43958984 320.5234375 277.63574219 C317.50381516 262.77433816 313.47897792 248.15043115 308 234 C307.73840088 233.30841797 307.47680176 232.61683594 307.20727539 231.90429688 C292.2200969 192.43320138 271.17884429 153.40811463 242.1953125 122.37109375 C240.36557448 120.39484646 238.60679204 118.38530263 236.8515625 116.34375 C226.30178058 104.25328907 214.70041662 92.80985238 202 83 C200.77916384 81.99498719 199.56200675 80.98549609 198.34765625 79.97265625 C183.7910716 67.86124869 168.29619856 57.61521839 152 48 C151.30245605 47.58395508 150.60491211 47.16791016 149.88623047 46.73925781 C136.15798587 38.60232882 121.65581651 32.26839076 107 26 C105.98268799 25.55672363 104.96537598 25.11344727 103.91723633 24.65673828 C97.19997802 21.77488271 90.47175669 19.47482536 83.4375 17.5 C82.39956299 17.20375732 81.36162598 16.90751465 80.29223633 16.60229492 C77.19767343 15.72427175 74.09980695 14.85930714 71 14 C70.12794922 13.75717285 69.25589844 13.5143457 68.35742188 13.26416016 C62.92421232 11.76174651 57.47353964 10.34773795 52 9 C51.29794434 8.8237207 50.59588867 8.64744141 49.87255859 8.46582031 C33.51058537 4.43115377 16.71676879 2.86124231 0 1 C0 0.67 0 0.34 0 0 Z " fill="#FEFEFE" transform="translate(1046,0)"/>
<path d="M0 0 C25.28625 -0.0825 50.5725 -0.165 76.625 -0.25 C84.54838379 -0.28641602 92.47176758 -0.32283203 100.63525391 -0.36035156 C110.46557617 -0.37841797 110.46557617 -0.37841797 115.09750366 -0.3817749 C118.26713748 -0.3854353 121.43649113 -0.40015085 124.60604858 -0.42230225 C159.02353913 -0.6518817 194.33521233 0.65853387 225 18 C225.89460938 18.46921875 226.78921875 18.9384375 227.7109375 19.421875 C246.99948052 30.03369478 260.53808057 47.65505776 267.25 68.5 C270.4652552 80.13802883 272.54231679 91.07788568 272.4375 103.1875 C272.42847656 104.44981445 272.41945313 105.71212891 272.41015625 107.01269531 C271.94781312 132.17828892 263.77293081 153.66728139 245.68261719 171.40600586 C236.12965831 180.39271326 224.77725907 186.39784433 213 192 C214.27962521 196.16723084 215.84951567 199.81613276 217.984375 203.61328125 C218.58258057 204.68336426 219.18078613 205.75344727 219.79711914 206.85595703 C220.44156982 207.99661621 221.08602051 209.13727539 221.75 210.3125 C222.42682815 211.51910091 223.1031713 212.725974 223.77905273 213.93310547 C225.16944069 216.41448521 226.56269512 218.89421977 227.95849609 221.37255859 C229.84949681 224.73066321 231.73263396 228.0931152 233.61328125 231.45703125 C235.91669678 235.57696938 238.22253704 239.69552797 240.53125 243.8125 C242.86699393 247.97782213 245.20026468 252.144513 247.53125 256.3125 C253.33890822 266.69608321 259.15635136 277.07412138 265 287.4375 C265.51570557 288.35418457 266.03141113 289.27086914 266.56274414 290.21533203 C269.5705105 295.54147276 272.67148709 300.79179067 275.8984375 305.98852539 C277 308 277 308 277 310 C263.56135106 310.23180506 250.12317836 310.40943577 236.68293667 310.51812172 C230.44179563 310.57028945 224.2020232 310.64103198 217.96166992 310.75439453 C211.93799994 310.86313469 205.91564519 310.92285932 199.89106941 310.94877243 C197.59399773 310.96723555 195.29699728 311.0032924 193.00048637 311.05730057 C175.01872211 311.4633273 175.01872211 311.4633273 170.14770508 307.93243408 C168.30519042 305.34588784 167.13892728 302.95457188 166 300 C165.27707985 298.85003998 164.52455602 297.71760556 163.73095703 296.61523438 C162.75425049 295.11959961 162.75425049 295.11959961 161.7578125 293.59375 C161.39265533 293.03557587 161.02749817 292.47740173 160.65127563 291.90231323 C159.4743491 290.10251809 158.29967021 288.30126839 157.125 286.5 C156.28303291 285.21164979 155.44090744 283.92340308 154.59863281 282.63525391 C152.46539586 279.37202146 150.33390673 276.10765186 148.20300293 272.84289551 C145.05402778 268.01894037 141.90189319 263.19704879 138.75 258.375 C138.08363525 257.355271 137.41727051 256.33554199 136.73071289 255.28491211 C130.35601131 245.53445041 123.96049789 235.79768683 117.5625 226.0625 C116.79274841 224.89119537 116.79274841 224.89119537 116.00744629 223.69622803 C114.54809962 221.47576114 113.08855951 219.2554216 111.62890625 217.03515625 C111.1901265 216.3676384 110.75134674 215.70012054 110.29927063 215.01237488 C108.53986235 212.33679945 106.77627985 209.66441978 105 207 C97.74 206.67 90.48 206.34 83 206 C83 240.32 83 274.64 83 310 C55.61 310 28.22 310 0 310 C0 207.7 0 105.4 0 0 Z " fill="#FDFDFD" transform="translate(824,181)"/>
<path d="M0 0 C27.06 0 54.12 0 82 0 C82 102.3 82 204.6 82 310 C54.94 310 27.88 310 0 310 C0 207.7 0 105.4 0 0 Z " fill="#FEFEFE" transform="translate(1134,181)"/>
<path d="M0 0 C10.76625 -0.061875 21.5325 -0.12375 32.625 -0.1875 C35.99541504 -0.21481201 39.36583008 -0.24212402 42.83837891 -0.27026367 C45.55110314 -0.27903683 48.26383137 -0.2866788 50.9765625 -0.29296875 C51.6606015 -0.30080887 52.3446405 -0.30864899 53.04940796 -0.31672668 C68.45018986 -0.48406061 85.58255659 1.0312553 97.30859375 12.0703125 C104.79247298 20.60850266 104.52009775 31.20679132 104.140625 41.96484375 C103.55639192 50.4199947 100.01626571 57.29286679 93.9375 63.125 C89.50529421 66.75048739 84.45651723 68.45702598 79 70 C77.78626709 70.34369629 76.57253418 70.68739258 75.32202148 71.04150391 C68.24437244 72.58854854 61.01271789 72.24693785 53.80859375 72.1953125 C52.42777671 72.19236584 51.04695742 72.19032924 49.6661377 72.18920898 C44.58989069 72.17879386 39.51369176 72.15087149 34.4375 72.125 C23.073125 72.08375 11.70875 72.0425 0 72 C0 48.24 0 24.48 0 0 Z " fill="#0B093B" transform="translate(907,251)"/>
<path d="M0 0 C1.04940487 3.14821462 0.98606526 3.9349491 0.22265625 7.01171875 C0.03896484 7.76904297 -0.14472656 8.52636719 -0.33398438 9.30664062 C-0.53314453 10.09232422 -0.73230469 10.87800781 -0.9375 11.6875 C-1.13279297 12.48478516 -1.32808594 13.28207031 -1.52929688 14.10351562 C-2.01228382 16.07080389 -2.5051963 18.03565054 -3 20 C-3.99 19.01 -4.98 18.02 -6 17 C-4.33846988 11.14340094 -2.52958084 5.5409866 0 0 Z " fill="#C2C2CD" transform="translate(677,266)"/>
<path d="M0 0 C-0.63808594 0.19335938 -1.27617188 0.38671875 -1.93359375 0.5859375 C-3.17302734 0.97652344 -3.17302734 0.97652344 -4.4375 1.375 C-5.67306641 1.75785156 -5.67306641 1.75785156 -6.93359375 2.1484375 C-9.17798016 2.80882227 -9.17798016 2.80882227 -10 5 C-12.97 4.505 -12.97 4.505 -16 4 C-13.41588269 2.27725513 -11.45097344 1.31104478 -8.5625 0.3125 C-7.41974609 -0.09548828 -7.41974609 -0.09548828 -6.25390625 -0.51171875 C-3.78170279 -1.04729142 -2.37016716 -0.80445309 0 0 Z " fill="#464469" transform="translate(920,16)"/>
</svg>
